# Blender v3.1.2 OBJ File: 'termopary (3).blend'
# www.blender.org
mtllib ../materials/thermo.mtl
o Плоскость
v 0.088912 0.563923 0.128315
v 0.092022 0.406467 0.128315
v 0.093266 0.343489 0.001215
v 0.095325 0.406782 -0.130494
v 0.096583 0.343108 -0.001992
v 0.095325 0.406782 0.126510
v 0.091752 0.587685 -0.111274
v 0.086832 0.634650 -0.020307
v 0.085488 0.661682 -0.021582
v 0.086832 0.635963 0.007546
v 0.085488 0.662994 0.006272
v -0.000219 0.634650 -0.020307
v -0.001562 0.661682 -0.021582
v -0.000219 0.635963 0.007546
v -0.001562 0.662994 0.006272
v 0.087441 0.575366 0.154797
v 0.087585 0.560191 0.136898
v 0.087762 0.593265 0.139626
v 0.087906 0.578090 0.121726
v 0.025803 0.575764 0.153964
v 0.025947 0.560589 0.136065
v 0.026124 0.593663 0.138792
v 0.026268 0.578489 0.120893
v 0.093512 0.388873 0.116829
v 0.091646 0.412543 0.130085
v 0.093645 0.375594 0.140559
v 0.091779 0.399264 0.153815
v -0.001409 0.654717 0.005962
v 0.090526 0.634650 -0.020307
v 0.089183 0.661682 -0.021582
v 0.090526 0.635963 0.007546
v 0.089183 0.662994 0.006272
v 0.090793 0.629022 -0.025585
v 0.088916 0.666788 -0.027365
v 0.090793 0.630856 0.013329
v 0.088916 0.668622 0.011549
v -0.003869 0.629022 -0.025585
v -0.005745 0.666788 -0.027365
v -0.003869 0.630856 0.013329
v -0.005745 0.668622 0.011549
v 0.089862 0.648663 -0.007167
v 0.089847 0.648967 -0.007181
v 0.089862 0.648678 -0.006854
v 0.089847 0.648982 -0.006868
v 0.093386 0.411338 -0.139553
v 0.093619 0.388442 -0.121427
v 0.093386 0.393212 -0.162450
v 0.093619 0.370316 -0.144324
v 0.092627 0.316507 -0.017719
v 0.093388 0.342588 -0.017719
v 0.092627 0.316507 0.008373
v 0.093388 0.342588 0.008373
v 0.087315 0.574627 0.163765
v 0.087537 0.551223 0.136159
v 0.087810 0.602234 0.140365
v 0.088032 0.578829 0.112758
v -0.003508 0.575935 0.163754
v -0.003286 0.552531 0.136147
v -0.003014 0.603542 0.140353
v -0.002792 0.580137 0.112747
v 0.087693 0.576838 0.136923
v 0.087681 0.578067 0.138372
v 0.087667 0.575389 0.138151
v 0.087655 0.576618 0.139601
v 0.004755 0.384630 0.114952
v 0.002888 0.408300 0.128208
v 0.004888 0.371350 0.138682
v 0.003021 0.395020 0.151938
v 0.093820 0.387027 0.110257
v 0.091290 0.419109 0.128224
v 0.094000 0.369028 0.142420
v 0.091471 0.401110 0.160388
v 0.001120 0.382595 0.108296
v -0.001410 0.414677 0.126263
v 0.001300 0.364596 0.140460
v -0.001229 0.396678 0.158427
v 0.092659 0.393983 0.135020
v 0.092629 0.394370 0.135237
v 0.092662 0.393766 0.135408
v 0.092631 0.394153 0.135624
v -0.003908 0.411338 -0.139553
v -0.003676 0.388442 -0.121427
v -0.003908 0.393212 -0.162450
v -0.003676 0.370316 -0.144324
v 0.093386 0.411338 -0.139553
v 0.093619 0.388442 -0.121427
v 0.093386 0.393212 -0.162450
v 0.093619 0.370316 -0.144324
v 0.093351 0.417610 -0.138823
v 0.093654 0.387713 -0.115155
v 0.093351 0.393942 -0.168722
v 0.093654 0.364044 -0.145054
v -0.005493 0.416994 -0.138335
v -0.005190 0.387096 -0.114667
v -0.005493 0.393325 -0.168234
v -0.005190 0.363427 -0.144566
v 0.093499 0.391339 -0.141879
v 0.093505 0.390768 -0.141426
v 0.093499 0.390887 -0.142451
v 0.093505 0.390315 -0.141998
v 0.016581 0.318723 -0.017719
v 0.017341 0.344805 -0.017719
v 0.016581 0.318723 0.008373
v 0.017341 0.344805 0.008373
v 0.092474 0.311258 -0.022970
v 0.093541 0.347836 -0.022970
v 0.092474 0.311258 0.013624
v 0.093541 0.347836 0.013624
v -0.005218 0.313867 -0.022970
v -0.004152 0.350445 -0.022970
v -0.005218 0.313867 0.013624
v -0.004152 0.350445 0.013624
v 0.092994 0.329088 -0.005132
v 0.093021 0.330007 -0.005132
v 0.092994 0.329088 -0.004214
v 0.093021 0.330007 -0.004214
v 0.087660 0.572265 -0.132796
v 0.087809 0.588110 -0.149177
v 0.087660 0.588647 -0.116950
v 0.087809 0.604492 -0.133331
v -0.004045 0.572682 -0.133227
v -0.003895 0.588528 -0.149609
v -0.004045 0.589064 -0.117381
v -0.003895 0.604910 -0.133763
v 0.087625 0.564728 -0.132670
v 0.087844 0.587985 -0.156714
v 0.087625 0.588772 -0.109413
v 0.087844 0.612029 -0.133457
v -0.009461 0.565170 -0.133127
v -0.009242 0.588427 -0.157171
v -0.009461 0.589214 -0.109869
v -0.009242 0.612471 -0.133913
v 0.087731 0.587628 -0.133051
v 0.087738 0.588366 -0.133815
v 0.087731 0.588391 -0.132312
v 0.087738 0.589130 -0.133076
vt 0.000000 1.000000
vt 1.000000 1.000000
vt 1.000000 1.000000
vt 0.000000 1.000000
vt 0.000000 0.000000
vt 1.000000 0.000000
vt 1.000000 1.000000
vt 0.000000 1.000000
vt 0.000000 0.000000
vt 1.000000 0.000000
vt 1.000000 1.000000
vt 1.000000 0.000000
vt 1.000000 0.000000
vt 1.000000 1.000000
vt 0.000000 0.000000
vt 1.000000 0.000000
vt 1.000000 1.000000
vt 0.000000 1.000000
vt 0.000000 1.000000
vt 0.000000 0.000000
vt 1.000000 0.000000
vt 0.000000 0.000000
vt 0.000000 0.000000
vt 1.000000 0.000000
vt 1.000000 1.000000
vt 0.000000 1.000000
vt 0.000000 0.000000
vt 1.000000 0.000000
vt 1.000000 0.000000
vt 1.000000 0.000000
vt 1.000000 1.000000
vt 0.000000 0.000000
vt 0.000000 0.000000
vt 0.000000 1.000000
vt 0.000000 1.000000
vt 1.000000 1.000000
vt 1.000000 0.000000
vt 0.000000 0.000000
vt 1.000000 0.000000
vt 0.000000 0.000000
vt 0.000000 0.000000
vt 1.000000 0.000000
vt 0.000000 0.000000
vt 0.000000 1.000000
vt 0.000000 1.000000
vt 0.000000 0.000000
vt 1.000000 0.000000
vt 1.000000 1.000000
vt 0.000000 1.000000
vt 0.000000 0.000000
vt 0.000000 0.000000
vt 0.000000 1.000000
vt 1.000000 1.000000
vt 1.000000 0.000000
vt 0.000000 0.000000
vt 0.000000 1.000000
vt 0.000000 0.000000
vt 1.000000 0.000000
vt 1.000000 1.000000
vt 0.000000 1.000000
vt 1.000000 1.000000
vt 0.000000 1.000000
vt 0.000000 1.000000
vt 1.000000 1.000000
vt 1.000000 1.000000
vt 0.000000 1.000000
vt 0.000000 0.000000
vt 1.000000 0.000000
vt 0.000000 0.000000
vt 1.000000 0.000000
vt 0.000000 1.000000
vt 1.000000 1.000000
vt 0.000000 0.000000
vt 1.000000 0.000000
vt 1.000000 1.000000
vt 0.000000 1.000000
vt 1.000000 1.000000
vt 0.000000 1.000000
vt 0.000000 1.000000
vt 0.000000 1.000000
vt 0.000000 0.000000
vt 1.000000 1.000000
vt 1.000000 0.000000
vt 0.000000 0.000000
vt 1.000000 0.000000
vt 1.000000 1.000000
vt 0.000000 1.000000
vt 1.000000 1.000000
vt 0.000000 1.000000
vt 1.000000 1.000000
vt 1.000000 0.000000
vt 0.000000 0.000000
vt 0.000000 0.000000
vt 1.000000 0.000000
vt 1.000000 1.000000
vt 0.000000 1.000000
vt 1.000000 0.000000
vt 1.000000 1.000000
vt 1.000000 0.000000
vt 0.000000 0.000000
vt 1.000000 0.000000
vt 1.000000 1.000000
vt 0.000000 1.000000
vt 1.000000 1.000000
vt 1.000000 0.000000
vt 0.000000 0.000000
vt 0.000000 1.000000
vt 1.000000 1.000000
vt 0.000000 1.000000
vt 1.000000 1.000000
vt 1.000000 1.000000
vt 0.000000 1.000000
vt 0.000000 0.000000
vt 1.000000 0.000000
vt 1.000000 1.000000
vt 0.000000 1.000000
vt 0.000000 0.000000
vt 1.000000 0.000000
vt 1.000000 0.000000
vt 1.000000 0.000000
vt 1.000000 1.000000
vt 0.000000 0.000000
vt 0.000000 0.000000
vt 0.000000 1.000000
vt 1.000000 1.000000
vt 1.000000 0.000000
vt 0.000000 0.000000
vt 0.000000 1.000000
vn 0.0000 -0.0471 -0.9989
vn 0.9988 0.0495 -0.0023
vn 0.0000 0.0471 0.9989
vn 0.0000 -0.9989 0.0471
vn 0.0000 0.9989 -0.0471
vn 0.9999 -0.0065 0.0135
vn -0.0061 0.6467 0.7628
vn 0.0061 -0.6466 -0.7628
vn -0.0137 -0.7628 0.6465
vn 0.0137 0.7628 -0.6465
vn 0.9976 0.0623 0.0293
vn -0.9988 -0.0495 0.0023
vn 0.0000 0.0000 1.0000
vn 0.9996 -0.0291 0.0000
vn -0.0092 -0.6465 -0.7629
vn -0.9999 0.0065 -0.0135
vn 0.0092 0.6465 0.7629
vn 0.0111 0.7628 -0.6466
vn -0.0111 -0.7628 0.6466
vn -0.0049 0.4883 -0.8726
vn 0.0049 -0.4883 0.8726
vn 0.0520 -0.8713 -0.4879
vn -0.0520 0.8713 0.4879
vn -0.9976 -0.0623 -0.0293
vn 1.0000 0.0062 -0.0049
vn 0.0000 0.6207 0.7841
vn 0.0000 -0.7841 0.6207
vn 0.0000 0.7841 -0.6207
vn 0.0000 -0.6207 -0.7841
vn -1.0000 -0.0062 0.0049
vn -0.0080 0.7840 -0.6207
vn 0.0080 -0.7840 0.6207
vn -0.0291 -0.9996 0.0000
vn 0.0291 0.9996 0.0000
vn 0.0000 0.0000 -1.0000
vn -0.9996 0.0291 0.0000
vn 0.0267 0.9996 0.0000
vn -0.0267 -0.9996 0.0000
vn 1.0000 -0.0045 0.0047
vn 0.0000 0.7188 0.6952
vn -0.0065 -0.6952 0.7188
vn 0.0065 0.6952 -0.7188
vn 0.0000 -0.7188 -0.6952
vn -1.0000 0.0045 -0.0047
vn 1.0000 -0.0046 0.0047
usemtl Материал
s off
f 10/1/1 11/2/1 32/3/1 31/4/1
f 12/5/2 13/6/2 15/7/2 14/8/2
f 11/2/1 10/1/1 14/8/1 15/7/1
f 8/9/3 9/10/3 13/6/3 12/5/3
f 9/10/4 11/2/4 15/7/4 13/6/4
f 10/1/5 8/9/5 12/5/5 14/8/5
f 19/11/6 17/12/6 54/13/6 56/14/6
f 20/15/6 21/16/6 23/17/6 22/18/6
f 17/12/7 19/11/7 23/17/7 21/16/7
f 18/19/8 16/20/8 20/15/8 22/18/8
f 19/11/9 18/19/9 22/18/9 23/17/9
f 16/20/10 17/12/10 21/16/10 20/15/10
f 26/21/11 27/22/11 72/23/11 71/24/11
f 31/4/2 32/3/2 36/25/2 35/26/2
f 9/10/3 8/9/3 29/27/3 30/28/3
f 11/2/4 9/10/4 30/28/4 32/3/4
f 8/9/5 10/1/5 31/4/5 29/27/5
f 36/25/5 34/29/5 38/30/5 40/31/5
f 30/28/2 29/27/2 33/32/2 34/29/2
f 32/3/2 30/28/2 34/29/2 36/25/2
f 29/27/2 31/4/2 35/26/2 33/32/2
f 37/33/12 39/34/12 40/31/12 38/30/12
f 33/32/4 35/26/4 39/34/4 37/33/4
f 35/26/3 36/25/3 40/31/3 39/34/3
f 34/29/1 33/32/1 37/33/1 38/30/1
f 32/3/2 31/4/2 43/35/2 44/36/2
f 29/27/2 30/28/2 42/37/2 41/38/2
f 30/28/2 32/3/2 44/36/2 42/37/2
f 31/4/2 29/27/2 41/38/2 43/35/2
f 47/39/13 48/40/13 88/41/13 87/42/13
f 52/43/14 50/44/14 106/45/14 108/46/14
f 56/14/15 54/13/15 58/47/15 60/48/15
f 16/20/6 18/19/6 55/49/6 53/50/6
f 18/19/6 19/11/6 56/14/6 55/49/6
f 17/12/6 16/20/6 53/50/6 54/13/6
f 57/51/16 59/52/16 60/48/16 58/47/16
f 53/50/17 55/49/17 59/52/17 57/51/17
f 55/49/18 56/14/18 60/48/18 59/52/18
f 54/13/19 53/50/19 57/51/19 58/47/19
f 17/12/6 19/11/6 64/53/6 62/54/6
f 18/19/6 16/20/6 61/55/6 63/56/6
f 19/11/6 18/19/6 63/56/6 64/53/6
f 16/20/6 17/12/6 62/54/6 61/55/6
f 68/57/11 67/58/11 65/59/11 66/60/11
f 27/22/20 26/21/20 67/58/20 68/57/20
f 24/61/21 25/62/21 66/60/21 65/59/21
f 25/62/22 27/22/22 68/57/22 66/60/22
f 26/21/23 24/61/23 65/59/23 67/58/23
f 70/63/20 69/64/20 73/65/20 74/66/20
f 25/62/11 24/61/11 69/64/11 70/63/11
f 27/22/11 25/62/11 70/63/11 72/23/11
f 24/61/11 26/21/11 71/24/11 69/64/11
f 76/67/24 74/66/24 73/65/24 75/68/24
f 72/23/23 70/63/23 74/66/23 76/67/23
f 69/64/22 71/24/22 75/68/22 73/65/22
f 71/24/21 72/23/21 76/67/21 75/68/21
f 26/21/24 27/22/24 80/69/24 79/70/24
f 24/61/11 25/62/11 78/71/11 77/72/11
f 25/62/11 27/22/11 80/69/11 78/71/11
f 26/21/11 24/61/11 77/72/11 79/70/11
f 84/73/25 83/74/25 81/75/25 82/76/25
f 48/40/26 47/39/26 83/74/26 84/73/26
f 47/39/27 45/77/27 81/75/27 83/74/27
f 46/78/28 48/40/28 84/73/28 82/76/28
f 45/77/29 46/78/29 82/76/29 81/75/29
f 88/41/25 86/79/25 90/80/25 92/81/25
f 45/77/13 47/39/13 87/42/13 85/82/13
f 48/40/13 46/78/13 86/79/13 88/41/13
f 46/78/13 45/77/13 85/82/13 86/79/13
f 91/83/29 92/81/29 96/84/29 95/85/29
f 86/79/25 85/82/25 89/86/25 90/80/25
f 87/42/25 88/41/25 92/81/25 91/83/25
f 85/82/25 87/42/25 91/83/25 89/86/25
f 96/84/30 94/87/30 93/88/30 95/85/30
f 89/86/31 91/83/31 95/85/31 93/88/31
f 92/81/32 90/80/32 94/87/32 96/84/32
f 90/80/26 89/86/26 93/88/26 94/87/26
f 85/82/25 86/79/25 98/89/25 97/90/25
f 88/41/25 87/42/25 99/91/25 100/92/25
f 87/42/25 85/82/25 97/90/25 99/91/25
f 88/41/30 86/79/30 98/89/30 100/92/30
f 104/93/14 103/94/14 101/95/14 102/96/14
f 50/44/33 52/43/33 104/93/33 102/96/33
f 51/97/34 49/98/34 101/95/34 103/94/34
f 52/43/35 51/97/35 103/94/35 104/93/35
f 49/98/13 50/44/13 102/96/13 101/95/13
f 107/99/13 108/46/13 112/100/13 111/101/13
f 49/98/14 51/97/14 107/99/14 105/102/14
f 51/97/14 52/43/14 108/46/14 107/99/14
f 50/44/14 49/98/14 105/102/14 106/45/14
f 112/100/36 110/103/36 109/104/36 111/101/36
f 106/45/35 105/102/35 109/104/35 110/103/35
f 108/46/37 106/45/37 110/103/37 112/100/37
f 105/102/38 107/99/38 111/101/38 109/104/38
f 52/43/14 51/97/14 115/105/14 116/106/14
f 49/98/14 50/44/14 114/107/14 113/108/14
f 52/43/36 50/44/36 114/107/36 116/106/36
f 51/97/14 49/98/14 113/108/14 115/105/14
f 119/109/39 120/110/39 128/111/39 127/112/39
f 121/113/39 122/114/39 124/115/39 123/116/39
f 117/117/40 118/118/40 122/114/40 121/113/40
f 118/118/41 120/110/41 124/115/41 122/114/41
f 119/109/42 117/117/42 121/113/42 123/116/42
f 120/110/43 119/109/43 123/116/43 124/115/43
f 128/111/42 126/119/42 130/120/42 132/121/42
f 118/118/39 117/117/39 125/122/39 126/119/39
f 120/110/39 118/118/39 126/119/39 128/111/39
f 117/117/39 119/109/39 127/112/39 125/122/39
f 129/123/44 131/124/44 132/121/44 130/120/44
f 125/122/41 127/112/41 131/124/41 129/123/41
f 127/112/40 128/111/40 132/121/40 131/124/40
f 126/119/43 125/122/43 129/123/43 130/120/43
f 118/118/39 120/110/39 136/125/39 134/126/39
f 119/109/39 117/117/39 133/127/39 135/128/39
f 119/109/44 120/110/44 136/125/44 135/128/44
f 117/117/45 118/118/45 134/126/45 133/127/45
